<svg width="124" height="124" viewBox="0 0 124 124" fill="none" xmlns="http://www.w3.org/2000/svg">
<circle cx="62" cy="62" r="62" fill="#FFBC05"/>
<path fill-rule="evenodd" clip-rule="evenodd" d="M54.6295 38.4377L61.5701 45.1523L68.5107 38.4377V33.9256C68.4934 32.7341 68.9549 31.5379 69.8943 30.6282L61.5697 22.5751L53.245 30.6282C54.1853 31.5379 54.6467 32.7359 54.6295 33.9284V38.4377ZM33.3982 76.9807V88.3702H45.1711C45.1711 87.521 45.4103 86.7266 45.8265 86.0458C45.8872 85.9472 45.9511 85.8504 46.019 85.7565C46.1897 85.5193 46.3828 85.2989 46.5955 85.098L49.9006 81.9011L49.901 72.4053H40.0861L36.7899 75.5948C35.9305 76.4496 34.7281 76.9807 33.3982 76.9807ZM28.6692 88.3702V74.3L18.3851 64.3513C16.5383 62.5654 16.5383 59.668 18.3851 57.8822L28.6698 47.9325V33.8623C28.6698 31.3361 30.787 29.2879 33.3987 29.2879L47.9421 29.2888L58.2262 19.3401C60.0731 17.5533 63.0673 17.5533 64.9141 19.3401L75.1979 29.2888H89.7413C92.3537 29.2888 94.4709 31.337 94.4709 33.8632L94.4699 47.9334L104.754 57.8822C106.601 59.668 106.601 62.5654 104.754 64.3513L94.4699 74.3V88.3693C94.4699 90.8964 92.3527 92.9446 89.7413 92.9446H75.1969L64.9131 102.893C63.0662 104.68 60.072 104.68 58.2252 102.893L47.9411 92.9446H33.3977C30.7859 92.9446 28.6692 90.8964 28.6692 88.3702ZM30.0537 69.1703C30.9945 68.2597 32.2322 67.8142 33.4646 67.8309H38.1267L45.0673 61.1163L38.1267 54.4025H33.4537C33.1559 54.4053 32.858 54.3821 32.5638 54.3309C32.4449 54.3114 32.3324 54.2807 32.2161 54.2574C31.4242 54.0612 30.6744 53.6631 30.0537 53.0622L21.7286 61.1163L30.0532 69.1694L30.0537 69.1703ZM44.8151 67.8309H49.901C52.5128 67.8309 54.63 69.8791 54.63 72.4053V77.3248L58.2262 73.8461C60.0731 72.0593 63.0673 72.0593 64.9141 73.8461L68.5107 77.3248V72.4044C68.5107 69.8781 70.6279 67.83 73.2393 67.83H78.3246L74.7287 64.3513C72.8817 62.5654 72.8817 59.668 74.7287 57.8822L78.3256 54.4025H73.2393C70.6279 54.4025 68.5107 52.3544 68.5107 49.8272V44.9077L64.9141 48.3864C63.0673 50.1732 60.0731 50.1732 58.2262 48.3864L54.63 44.9077V49.8272C54.63 52.3534 52.5128 54.4016 49.901 54.4016H44.8146L48.4112 57.8812C50.2581 59.668 50.2581 62.5645 48.4112 64.3513L44.8151 67.83V67.8309ZM54.63 83.7948V88.3051C54.6471 89.4975 54.1864 90.6946 53.2456 91.6052L61.5707 99.6583L69.8953 91.6043C69.2751 91.0043 68.8636 90.2788 68.6598 89.5124C68.6309 89.4008 68.605 89.2892 68.5838 89.1766C68.5319 88.892 68.5069 88.6046 68.5107 88.3172V83.7948L61.5707 77.0811L54.63 83.7948ZM73.2393 40.3323V49.8281L83.0552 49.8272L86.3521 46.6378C87.2117 45.783 88.4126 45.2518 89.7413 45.2518L89.7423 33.8632H77.9689C77.9689 35.1496 77.4189 36.3123 76.5353 37.1438L73.2393 40.3323ZM93.0864 53.0631C92.146 53.9728 90.9086 54.4193 89.676 54.4025H85.0137L78.0727 61.1163L85.0127 67.83H89.676C90.9086 67.8132 92.146 68.2597 93.0864 69.1694L101.411 61.1163L93.0854 53.0622L93.0864 53.0631ZM77.9689 88.3702H89.7423V76.9807C88.4126 76.9807 87.2117 76.4496 86.3521 75.5957L83.0552 72.4053H73.2393V81.9011L76.5363 85.0896C77.4199 85.9211 77.9689 87.0838 77.9689 88.3693V88.3702ZM40.0856 49.8281H49.901V40.3333L46.5966 37.1364C46.3838 36.9355 46.1903 36.7141 46.0195 36.4769C45.95 36.3811 45.8929 36.2825 45.827 36.1877C45.4108 35.5068 45.1716 34.7125 45.1716 33.8632L33.3987 33.8623V45.2518C34.7293 45.2518 35.9301 45.7829 36.7893 46.6387L40.0861 49.8272L40.0856 49.8281Z" fill="white"/>
</svg>
