<svg width="325" height="87" viewBox="0 0 325 87" fill="none" xmlns="http://www.w3.org/2000/svg">
<path fill-rule="evenodd" clip-rule="evenodd" d="M37.6295 20.4377L44.5701 27.1523L51.5107 20.4377V15.9256C51.4934 14.7341 51.9549 13.5379 52.8943 12.6282L44.5697 4.57512L36.245 12.6282C37.1853 13.5379 37.6467 14.7359 37.6295 15.9284V20.4377ZM16.3982 58.9807V70.3702H28.1711C28.1711 69.521 28.4103 68.7266 28.8265 68.0458C28.8872 67.9472 28.9511 67.8504 29.019 67.7565C29.1897 67.5193 29.3828 67.2989 29.5955 67.098L32.9006 63.9011L32.901 54.4053H23.0861L19.7899 57.5948C18.9305 58.4496 17.7281 58.9807 16.3982 58.9807ZM11.6692 70.3702V56.3L1.38512 46.3513C-0.461706 44.5654 -0.461706 41.668 1.38512 39.8822L11.6698 29.9325V15.8623C11.6698 13.3361 13.787 11.2879 16.3987 11.2879L30.9421 11.2888L41.2262 1.34009C43.0731 -0.446698 46.0673 -0.446698 47.9141 1.34009L58.1979 11.2888H72.7413C75.3537 11.2888 77.4709 13.337 77.4709 15.8632L77.4699 29.9334L87.754 39.8822C89.601 41.668 89.601 44.5654 87.754 46.3513L77.4699 56.3V70.3693C77.4699 72.8964 75.3527 74.9446 72.7413 74.9446H58.1969L47.9131 84.8933C46.0662 86.6801 43.072 86.6801 41.2252 84.8933L30.9411 74.9446H16.3977C13.7859 74.9446 11.6692 72.8964 11.6692 70.3702ZM13.0537 51.1703C13.9945 50.2597 15.2322 49.8142 16.4646 49.8309H21.1267L28.0673 43.1163L21.1267 36.4025H16.4537C16.1559 36.4053 15.858 36.3821 15.5638 36.3309C15.4449 36.3114 15.3324 36.2807 15.2161 36.2574C14.4242 36.0612 13.6744 35.6631 13.0537 35.0622L4.72859 43.1163L13.0532 51.1694L13.0537 51.1703ZM27.8151 49.8309H32.901C35.5128 49.8309 37.63 51.8791 37.63 54.4053V59.3248L41.2262 55.8461C43.0731 54.0593 46.0673 54.0593 47.9141 55.8461L51.5107 59.3248V54.4044C51.5107 51.8781 53.6279 49.83 56.2393 49.83H61.3246L57.7287 46.3513C55.8817 44.5654 55.8817 41.668 57.7287 39.8822L61.3256 36.4025H56.2393C53.6279 36.4025 51.5107 34.3544 51.5107 31.8272V26.9077L47.9141 30.3864C46.0673 32.1732 43.0731 32.1732 41.2262 30.3864L37.63 26.9077V31.8272C37.63 34.3534 35.5128 36.4016 32.901 36.4016H27.8146L31.4112 39.8812C33.2581 41.668 33.2581 44.5645 31.4112 46.3513L27.8151 49.83V49.8309ZM37.63 65.7948V70.3051C37.6471 71.4975 37.1864 72.6946 36.2456 73.6052L44.5707 81.6583L52.8953 73.6043C52.2751 73.0043 51.8636 72.2788 51.6598 71.5124C51.6309 71.4008 51.605 71.2892 51.5838 71.1766C51.5319 70.892 51.5069 70.6046 51.5107 70.3172V65.7948L44.5707 59.0811L37.63 65.7948ZM56.2393 22.3323V31.8281L66.0552 31.8272L69.3521 28.6378C70.2117 27.783 71.4126 27.2518 72.7413 27.2518L72.7423 15.8632H60.9689C60.9689 17.1496 60.4189 18.3123 59.5353 19.1438L56.2393 22.3323ZM76.0864 35.0631C75.146 35.9728 73.9086 36.4193 72.676 36.4025H68.0137L61.0727 43.1163L68.0127 49.83H72.676C73.9086 49.8132 75.146 50.2597 76.0864 51.1694L84.4109 43.1163L76.0854 35.0622L76.0864 35.0631ZM60.9689 70.3702H72.7423V58.9807C71.4126 58.9807 70.2117 58.4496 69.3521 57.5957L66.0552 54.4053H56.2393V63.9011L59.5363 67.0896C60.4199 67.9211 60.9689 69.0838 60.9689 70.3693V70.3702ZM23.0856 31.8281H32.901V22.3333L29.5966 19.1364C29.3838 18.9355 29.1903 18.7141 29.0195 18.4769C28.95 18.3811 28.8929 18.2825 28.827 18.1877C28.4108 17.5068 28.1716 16.7125 28.1716 15.8632L16.3987 15.8623V27.2518C17.7293 27.2518 18.9301 27.7829 19.7893 28.6387L23.0861 31.8272L23.0856 31.8281Z" fill="#FFBC05"/>
<path d="M113.218 63.567V22.667H130.218C136.285 22.667 141.298 24.5924 145.258 28.4441C149.219 32.2958 151.199 37.1557 151.199 43.0249V43.2081C151.199 49.0773 149.219 53.9373 145.258 57.789C141.298 61.6407 136.285 63.567 130.218 63.567H113.218ZM130.154 28.4748H119.348V57.7583H130.154C134.494 57.7583 138.054 56.4031 140.835 53.6926C143.615 50.9822 145.005 47.4877 145.005 43.2081V43.0249C145.005 38.7454 143.615 35.2499 140.835 32.5395C138.054 29.829 134.494 28.4748 130.154 28.4748ZM171.363 32.5097C176.461 32.5097 180.515 34.2416 183.527 37.7064C186.54 41.1702 187.836 45.4498 187.414 50.5451H161.567C161.778 52.9495 162.831 54.9465 164.727 56.5361C166.623 58.1257 168.961 58.921 171.742 58.921C173.764 58.921 175.555 58.4931 177.113 57.6374C178.672 56.7816 179.81 55.6404 180.526 54.2135H186.783C185.729 57.3927 183.833 59.8995 181.095 61.7337C178.357 63.5679 175.154 64.4841 171.489 64.4841C166.601 64.4841 162.662 62.9457 159.671 59.8688C156.68 56.7909 155.184 53.0109 155.184 48.5276C155.184 44.0034 156.701 40.2029 159.734 37.125C162.767 34.0482 166.643 32.5097 171.362 32.5097H171.363ZM171.236 38.0729C168.792 38.0729 166.706 38.7556 164.979 40.121C163.252 41.4865 162.157 43.2491 161.693 45.4089H180.905C180.441 43.2082 179.335 41.4353 177.586 40.0903C175.838 38.7454 173.721 38.0729 171.235 38.0729H171.236ZM207.388 32.5097C212.486 32.5097 216.54 34.2416 219.552 37.7064C222.565 41.1702 223.861 45.4498 223.44 50.5451H197.592C197.803 52.9495 198.856 54.9465 200.753 56.5361C202.649 58.1257 204.986 58.921 207.767 58.921C209.79 58.921 211.58 58.4931 213.139 57.6374C214.698 56.7816 215.835 55.6404 216.552 54.2135H222.808C221.754 57.3927 219.859 59.8995 217.12 61.7337C214.382 63.5679 211.18 64.4841 207.515 64.4841C202.627 64.4841 198.688 62.9457 195.696 59.8688C192.705 56.7909 191.209 53.0109 191.209 48.5276C191.209 44.0034 192.726 40.2029 195.76 37.125C198.793 34.0482 202.669 32.5097 207.387 32.5097H207.388ZM207.261 38.0729C204.818 38.0729 202.732 38.7556 201.004 40.121C199.277 41.4865 198.182 43.2491 197.718 45.4089H216.93C216.466 43.2082 215.36 41.4353 213.611 40.0903C211.863 38.7454 209.746 38.0729 207.261 38.0729ZM245.878 32.5097C249.881 32.5097 253.104 33.7626 255.547 36.2693C257.991 38.776 259.212 42.1078 259.212 46.2655V63.6284H253.209V47.3054C253.209 44.6145 252.44 42.4138 250.902 40.7023C249.364 38.99 247.268 38.1342 244.614 38.1342C241.749 38.1342 239.422 39.1025 237.63 41.0381C235.84 42.9747 234.945 45.4712 234.945 48.5276V63.6284H228.941V33.3664H234.819V37.4627H235.072C237.768 34.1616 241.371 32.5106 245.878 32.5106V32.5097ZM291.636 37.7668V33.3654H297.576V63.6274H291.636V58.921H291.383C288.729 62.5885 284.979 64.4432 280.135 64.4841C275.584 64.565 271.803 63.0982 268.79 60.0818C265.778 57.0663 264.272 53.1941 264.272 48.4662C264.272 43.7383 265.767 39.8866 268.759 36.9111C271.75 33.9365 275.563 32.4688 280.197 32.5097C285.001 32.5506 288.73 34.303 291.383 37.7678L291.636 37.7668ZM281.018 58.8586C284.137 58.8586 286.675 57.8606 288.633 55.8636C290.593 53.8666 291.573 51.4008 291.573 48.4662C291.573 45.5307 290.593 43.0649 288.633 41.0679C286.675 39.0709 284.137 38.0729 281.018 38.0729C277.817 38.0729 275.226 39.0709 273.246 41.0679C271.265 43.0649 270.276 45.5307 270.276 48.4662C270.276 51.4008 271.265 53.8657 273.246 55.8636C275.226 57.8606 277.817 58.8586 281.018 58.8586ZM320.899 33.3645H324.021V39.2337H320.962C318.056 39.2337 315.738 40.1108 314.011 41.8632C312.283 43.6155 311.42 46.02 311.42 49.0773V63.6274H305.416V33.3645H311.23V38.5621H311.483C313.126 35.0973 316.266 33.3645 320.9 33.3645H320.899Z" fill="white"/>
</svg>
