<svg width="90" height="87" viewBox="0 0 90 87" fill="none" xmlns="http://www.w3.org/2000/svg">
<path fill-rule="evenodd" clip-rule="evenodd" d="M37.6295 20.4377L44.5701 27.1523L51.5107 20.4377V15.9256C51.4934 14.7341 51.9549 13.5379 52.8943 12.6282L44.5697 4.57512L36.245 12.6282C37.1853 13.5379 37.6467 14.7359 37.6295 15.9284V20.4377ZM16.3982 58.9807V70.3702H28.1711C28.1711 69.521 28.4103 68.7266 28.8265 68.0458C28.8872 67.9472 28.9511 67.8504 29.019 67.7565C29.1897 67.5193 29.3828 67.2989 29.5955 67.098L32.9006 63.9011L32.901 54.4053H23.0861L19.7899 57.5948C18.9305 58.4496 17.7281 58.9807 16.3982 58.9807ZM11.6692 70.3702V56.3L1.38512 46.3513C-0.461706 44.5654 -0.461706 41.668 1.38512 39.8822L11.6698 29.9325V15.8623C11.6698 13.3361 13.787 11.2879 16.3987 11.2879L30.9421 11.2888L41.2262 1.34009C43.0731 -0.446698 46.0673 -0.446698 47.9141 1.34009L58.1979 11.2888H72.7413C75.3537 11.2888 77.4709 13.337 77.4709 15.8632L77.4699 29.9334L87.754 39.8822C89.601 41.668 89.601 44.5654 87.754 46.3513L77.4699 56.3V70.3693C77.4699 72.8964 75.3527 74.9446 72.7413 74.9446H58.1969L47.9131 84.8933C46.0662 86.6801 43.072 86.6801 41.2252 84.8933L30.9411 74.9446H16.3977C13.7859 74.9446 11.6692 72.8964 11.6692 70.3702ZM13.0537 51.1703C13.9945 50.2597 15.2322 49.8142 16.4646 49.8309H21.1267L28.0673 43.1163L21.1267 36.4025H16.4537C16.1559 36.4053 15.858 36.3821 15.5638 36.3309C15.4449 36.3114 15.3324 36.2807 15.2161 36.2574C14.4242 36.0612 13.6744 35.6631 13.0537 35.0622L4.72859 43.1163L13.0532 51.1694L13.0537 51.1703ZM27.8151 49.8309H32.901C35.5128 49.8309 37.63 51.8791 37.63 54.4053V59.3248L41.2262 55.8461C43.0731 54.0593 46.0673 54.0593 47.9141 55.8461L51.5107 59.3248V54.4044C51.5107 51.8781 53.6279 49.83 56.2393 49.83H61.3246L57.7287 46.3513C55.8817 44.5654 55.8817 41.668 57.7287 39.8822L61.3256 36.4025H56.2393C53.6279 36.4025 51.5107 34.3544 51.5107 31.8272V26.9077L47.9141 30.3864C46.0673 32.1732 43.0731 32.1732 41.2262 30.3864L37.63 26.9077V31.8272C37.63 34.3534 35.5128 36.4016 32.901 36.4016H27.8146L31.4112 39.8812C33.2581 41.668 33.2581 44.5645 31.4112 46.3513L27.8151 49.83V49.8309ZM37.63 65.7948V70.3051C37.6471 71.4975 37.1864 72.6946 36.2456 73.6052L44.5707 81.6583L52.8953 73.6043C52.2751 73.0043 51.8636 72.2788 51.6598 71.5124C51.6309 71.4008 51.605 71.2892 51.5838 71.1766C51.5319 70.892 51.5069 70.6046 51.5107 70.3172V65.7948L44.5707 59.0811L37.63 65.7948ZM56.2393 22.3323V31.8281L66.0552 31.8272L69.3521 28.6378C70.2117 27.783 71.4126 27.2518 72.7413 27.2518L72.7423 15.8632H60.9689C60.9689 17.1496 60.4189 18.3123 59.5353 19.1438L56.2393 22.3323ZM76.0864 35.0631C75.146 35.9728 73.9086 36.4193 72.676 36.4025H68.0137L61.0727 43.1163L68.0127 49.83H72.676C73.9086 49.8132 75.146 50.2597 76.0864 51.1694L84.4109 43.1163L76.0854 35.0622L76.0864 35.0631ZM60.9689 70.3702H72.7423V58.9807C71.4126 58.9807 70.2117 58.4496 69.3521 57.5957L66.0552 54.4053H56.2393V63.9011L59.5363 67.0896C60.4199 67.9211 60.9689 69.0838 60.9689 70.3693V70.3702ZM23.0856 31.8281H32.901V22.3333L29.5966 19.1364C29.3838 18.9355 29.1903 18.7141 29.0195 18.4769C28.95 18.3811 28.8929 18.2825 28.827 18.1877C28.4108 17.5068 28.1716 16.7125 28.1716 15.8632L16.3987 15.8623V27.2518C17.7293 27.2518 18.9301 27.7829 19.7893 28.6387L23.0861 31.8272L23.0856 31.8281Z" fill="#0D0D0D"/>
</svg>
